# xmcd
#
# Track frame offsets: 
#        150
#        17294
#        36359
#        59731
#        82140
#        99735
#        116711
#        136279
#        154437
#        171276
#        185294
#        202884
#        223371
#        253394
#        273604
#        297108
#
# Disc length: 4417 seconds
#
# Revision: 2
# Processed by: cddbd v1.5.2PL0 Copyright (c) Steve Scherf et al.
# Submitted via: ExactAudioCopyFreeDBPlugin 1.0
#
DISCID=fe113f10
DTITLE=Roberto Ciotti Elektric Band - My Blues. Best Live Songs
DYEAR=2008
DGENRE=Rock-Blues
TTITLE0=Let Me Blow The Night
TTITLE1=Me And The Wind
TTITLE2=Cool Man
TTITLE3=The Reason Why I Go
TTITLE4=Magic Years
TTITLE5=My Soul
TTITLE6=Along The River
TTITLE7=Walkin' In The Summer
TTITLE8=You Can Change The Weather
TTITLE9=You're A Devil
TTITLE10=I Feel Good, Do You Feel The Same?
TTITLE11=One Way Boogie
TTITLE12=I'm Full Of Blues (Drums and Percussions Solos)
TTITLE13=Bella Chica
TTITLE14=Road'n'Rail
TTITLE15=No More Blue
EXTD=
EXTT0=
EXTT1=
EXTT2=
EXTT3=
EXTT4=
EXTT5=
EXTT6=
EXTT7=
EXTT8=
EXTT9=
EXTT10=
EXTT11=
EXTT12=
EXTT13=
EXTT14=
EXTT15=
PLAYORDER=
